<svg xmlns="http://www.w3.org/2000/svg" viewBox="0 0 512 512" fill="currentColor">
    <path d="M256.5 363.5c-33.75 0-49.13-24.75-73.25-24.75c-12.38 0-24.38 7.25-24.38 22.25c0 15.75 13.88 31.5 38.5 31.5c27.13 0 39.88-6.875 60.5-6.875c20.63 0 33.38 6.875 60.5 6.875c24.63 0 38.5-15.75 38.5-31.5c0-15-12-22.25-24.38-22.25c-24.13 0-39.5 24.75-73.25 24.75h-2.75zM256 32C114.6 32 0 146.6 0 288c0 141.4 114.6 256 256 256s256-114.6 256-256C512 146.6 397.4 32 256 32zM394.8 353.9c-2.5 5.875-12.88 13.38-32.75 18.75c-3.25 .875-8 2.125-8.5 7.625c-.25 1.75-.5 3.5-.75 5.25c-.5 3-1.75 4.625-4.75 4.625c-3.375 0-7.5-.875-15.38-2.625c-12.75-2.875-27.25-6.125-47.25-6.125c-11 0-22.13 1.375-33 4.125c-10.88 2.75-20 8.5-30.13 8.5s-19.25-5.75-30.13-8.5c-10.88-2.75-22-4.125-33-4.125c-20 0-34.5 3.25-47.25 6.125c-7.875 1.75-12 2.625-15.38 2.625c-3 0-4.25-1.625-4.75-4.625c-.25-1.75-.5-3.5-.75-5.25c-.5-5.5-5.25-6.75-8.5-7.625c-19.88-5.375-30.25-12.88-32.75-18.75c-.375-.875-.625-1.75-.625-2.625c0-2.25 1.75-4.25 4.25-4.75c67.13-11.13 97.38-79.25 98.5-82.13c.25-.625 .375-1.25 .625-1.875c2.875-5.75 3.625-10.75 2.25-14.75c-2.875-8.25-12.63-12-18.88-14.5c-1.625-.625-15.75-6.25-18.25-8c-11.13-7.5-11.75-15.38-11.38-19.25c.625-6.75 6.75-11.5 13.38-11.5c1.625 0 3.125 .25 4.375 .75c7.875 2.75 15 4.25 21.13 4.25c8.5 0 12.13-3.5 12.63-4c-.125-2.25-.25-4.625-.375-6.75c-2-31.75-4.5-71.25 5.625-94c30.13-68 94.13-73.25 113-73.25c.5 0 8.5-.125 8.5-.125h1.125c18.88 0 82.88 5.25 113 73.25c10.13 22.75 7.625 62.25 5.625 94c-.125 2.125-.25 4.375-.375 6.75c.5 .5 4 4 12.63 4c6.125 0 13.13-1.5 21.13-4.25c1.375-.5 2.875-.75 4.375-.75c6.625 0 12.75 4.75 13.38 11.5c.375 3.875-.25 11.75-11.38 19.25c-2.5 1.75-16.63 7.375-18.25 8c-6.25 2.5-16 6.25-18.88 14.5c-1.375 4 -.625 9 2.25 14.75c.25 .625 .375 1.25 .625 1.875c1.125 2.875 31.38 71 98.5 82.13c2.5 .5 4.25 2.5 4.25 4.75c0 .875-.25 1.75-.625 2.625z"/>
</svg> 